<?xml version="1.0" encoding="utf-8"?>
<!-- Generator: Adobe Illustrator 16.0.0, SVG Export Plug-In . SVG Version: 6.00 Build 0)  -->
<!DOCTYPE svg PUBLIC "-//W3C//DTD SVG 1.1//EN" "http://www.w3.org/Graphics/SVG/1.1/DTD/svg11.dtd">
<svg version="1.1" id="Layer_1" xmlns="http://www.w3.org/2000/svg" xmlns:xlink="http://www.w3.org/1999/xlink" x="0px" y="0px"
	 width="240px" height="41px" viewBox="0 0 240 41" enable-background="new 0 0 240 41" xml:space="preserve">
<g>
	<g>
		<polygon fill="#FFFFFF" points="140.151,17.787 140.151,12.993 122.971,12.993 122.971,35.764 140.151,35.764 140.151,30.971 
			128.166,30.971 128.166,26.977 137.755,26.977 137.755,22.18 128.166,22.18 128.166,17.787 		"/>
		<polygon fill="#FFFFFF" points="214.465,12.993 194.088,12.993 194.088,17.787 201.68,17.787 201.68,35.764 206.872,35.764 
			206.872,17.787 214.465,17.787 		"/>
		<polygon fill="#FFFFFF" points="160.928,12.993 160.928,27.079 149.851,12.993 145.347,12.993 145.347,35.764 150.538,35.764 
			150.538,22.032 161.72,35.764 166.122,35.764 166.122,12.993 		"/>
		<path fill="#FFFFFF" d="M61.585,35.764h5.756l-9.25-22.771h-5.509l-9.248,22.771h5.755l1.366-3.594h9.771L61.585,35.764z
			 M52.125,27.773l3.229-8.498l3.211,8.498H52.125z"/>
		<path fill="#FFFFFF" d="M108.272,23.801V28.1h4.769c-1.195,2.042-3.408,3.418-5.946,3.418c-3.805,0-6.89-3.087-6.89-6.892
			c0-3.805,3.085-6.892,6.89-6.892c2.017,0,3.827,0.87,5.087,2.25l4.213-2.838c-2.189-2.717-5.542-4.457-9.3-4.457
			c-6.591,0-11.934,5.344-11.934,11.936c0,6.592,5.343,11.935,11.934,11.935c6.593,0,11.937-5.343,11.937-11.935
			c0-0.276-0.011-0.551-0.03-0.823L108.272,23.801z"/>
		<path fill="#FFFFFF" d="M235.082,28.059c-1.188,2.066-3.414,3.459-5.969,3.459c-3.805,0-6.89-3.084-6.89-6.89
			c0-3.804,3.085-6.888,6.89-6.888c2.493,0,4.675,1.329,5.882,3.313l4.628-2.085c-2.018-3.735-5.967-6.274-10.51-6.274
			c-6.591,0-11.934,5.344-11.934,11.935c0,6.592,5.343,11.937,11.934,11.937c4.622,0,8.629-2.63,10.613-6.474L235.082,28.059z"/>
		<path fill="#FFFFFF" d="M86.299,28.981c2.868-1.333,4.861-4.23,4.861-7.602c0-4.632-3.756-8.387-8.389-8.387
			c-0.229,0-11.338,0-11.338,0v22.771h5.194v-6.392h3.836l4.498,6.392h6.277L86.299,28.981z M82.49,24.978h-5.863v-7.19l5.862,0.002
			h0.001c1.985,0,3.594,1.608,3.594,3.592C86.084,23.369,84.475,24.978,82.49,24.978z"/>
		<path fill="#FFFFFF" d="M188.209,24.084c1.549-1.112,2.558-2.921,2.558-4.97c0-3.375-2.731-6.113-6.106-6.12l-0.002-0.001h-12.545
			v22.771h13.544c3.383,0,6.123-2.741,6.123-6.119C191.78,27.174,190.314,25.052,188.209,24.084z M177.306,17.787h5.896
			c1.212,0,2.196,0.984,2.196,2.199c0,1.213-0.984,2.196-2.199,2.196c-0.009,0-5.894-0.002-5.894-0.002V17.787z M184.072,30.971
			c0,0.002-6.767,0-6.767,0v-4.794h6.767l0,0c1.32,0.004,2.389,1.073,2.389,2.394C186.461,29.893,185.393,30.966,184.072,30.971z"/>
	</g>
	<g>
		<polygon fill="#FF412F" points="5.675,0.208 0.288,6.852 16.98,40.78 25.623,40.778 		"/>
		<polygon opacity="0.16" points="5.675,0.208 0.288,6.852 16.98,40.78 25.623,40.778 		"/>
		<polygon fill="#FF412F" points="37.665,16.198 33.467,7.152 5.675,0.208 0.288,6.852 		"/>
		<polygon opacity="0.08" points="37.665,16.198 33.467,7.152 5.675,0.208 0.288,6.852 		"/>
		<polygon fill="#FF412F" points="33.467,7.152 16.98,40.78 25.623,40.778 37.665,16.198 		"/>
		<polygon opacity="0.2" fill="#231F20" points="33.462,7.147 33.307,7.112 29.405,14.132 29.975,14.276 		"/>
		<polygon opacity="0.2" fill="#231F20" points="0.288,6.852 0.375,7.029 10.498,10.019 10.154,9.319 		"/>
		<polygon opacity="0.2" fill="#231F20" points="16.89,40.599 16.98,40.78 21.295,31.979 20.958,31.295 		"/>
	</g>
</g>
</svg>
