<?xml version="1.0" encoding="UTF-8" standalone="no"?>
<!-- Created with Inkscape (http://www.inkscape.org/) -->

<svg
   xmlns:dc="http://purl.org/dc/elements/1.1/"
   xmlns:cc="http://creativecommons.org/ns#"
   xmlns:rdf="http://www.w3.org/1999/02/22-rdf-syntax-ns#"
   xmlns:svg="http://www.w3.org/2000/svg"
   xmlns="http://www.w3.org/2000/svg"
   xmlns:sodipodi="http://sodipodi.sourceforge.net/DTD/sodipodi-0.dtd"
   xmlns:inkscape="http://www.inkscape.org/namespaces/inkscape"
   width="1000"
   height="1000"
   viewBox="0 0 999.99997 1000"
   id="svg2"
   version="1.1"
   inkscape:version="0.91 r13725"
   sodipodi:docname="bit2me-isotipo-blue_bg-white.svg"
   inkscape:export-filename="E:\Trabajo\BIT2ME\Imagen Corporativa\Logo\Logos OK\bit2me-isotipo-blue_bg-white.png"
   inkscape:export-xdpi="90"
   inkscape:export-ydpi="90">
  <defs
     id="defs4" />
  <sodipodi:namedview
     id="base"
     pagecolor="#ffffff"
     bordercolor="#666666"
     borderopacity="1.0"
     inkscape:pageopacity="0.0"
     inkscape:pageshadow="2"
     inkscape:zoom="0.35355339"
     inkscape:cx="735.89107"
     inkscape:cy="980.61673"
     inkscape:document-units="px"
     inkscape:current-layer="g4195"
     showgrid="false"
     units="px"
     showguides="true"
     inkscape:guide-bbox="true"
     inkscape:window-width="1920"
     inkscape:window-height="1018"
     inkscape:window-x="-8"
     inkscape:window-y="-8"
     inkscape:window-maximized="1"
     fit-margin-top="0"
     fit-margin-left="0"
     fit-margin-right="0"
     fit-margin-bottom="0"
     inkscape:showpageshadow="false">
    <sodipodi:guide
       position="495.81442,133.42221"
       orientation="0,1"
       id="guide4234" />
    <sodipodi:guide
       position="499.57093,0.083037558"
       orientation="0,1"
       id="guide4236" />
    <sodipodi:guide
       position="-1.9815626e-007,460.625"
       orientation="1,0"
       id="guide4238" />
    <sodipodi:guide
       position="8.8195078,0.083037558"
       orientation="0,1"
       id="guide4258" />
    <sodipodi:guide
       position="866.81248,497.90625"
       orientation="1,0"
       id="guide4266" />
    <sodipodi:guide
       position="-1.9815626e-007,39.906618"
       orientation="1,0"
       id="guide4268" />
    <sodipodi:guide
       position="522.81249,866.625"
       orientation="0,1"
       id="guide4270" />
    <sodipodi:guide
       position="999.99997,496.96875"
       orientation="1,0"
       id="guide4400" />
    <sodipodi:guide
       position="516.68749,1000.0625"
       orientation="0,1"
       id="guide4214" />
    <sodipodi:guide
       position="133.25,508.375"
       orientation="1,0"
       id="guide4216" />
  </sodipodi:namedview>
  <metadata
     id="metadata7">
    <rdf:RDF>
      <cc:Work
         rdf:about="">
        <dc:format>image/svg+xml</dc:format>
        <dc:type
           rdf:resource="http://purl.org/dc/dcmitype/StillImage" />
        <dc:title></dc:title>
      </cc:Work>
    </rdf:RDF>
  </metadata>
  <g
     inkscape:label="Capa 1"
     inkscape:groupmode="layer"
     id="layer1"
     transform="translate(0.0043487,871.09464)">
    <g
       id="Capa_1_1_"
       transform="matrix(10.344884,0,0,10.344884,17.118914,17.184719)"
       inkscape:export-xdpi="90"
       inkscape:export-ydpi="90">
      <g
         id="g4149">
        <g
           id="g4195"
           transform="translate(0.00307736,-0.02343616)">
          <rect
             style="opacity:1;fill:#ffffff;fill-opacity:1;stroke:none;stroke-width:11.60599995;stroke-linecap:round;stroke-linejoin:round;stroke-miterlimit:4;stroke-dasharray:none;stroke-opacity:1"
             id="rect4218"
             width="96.666138"
             height="96.634972"
             x="-1.643213"
             y="-85.810898" />
          <g
             transform="matrix(7.758696,0,0,7.758696,-60.422078,-72.942432)"
             id="g4171">
            <g
               id="g4173">
              <path
                 style="fill:#294d9a"
                 inkscape:connector-curvature="0"
                 d="M 12.224,8.852 C 9.912,8 8.699,5.498 9.462,3.153 10.241,0.759 12.823,-0.555 15.218,0.224 17.637,1.014 18.927,3.58 18.147,5.98 17.768,7.141 16.961,8.084 15.876,8.636 14.789,9.189 13.552,9.286 12.392,8.907 12.334,8.891 12.278,8.873 12.224,8.852 M 15.249,0.649 C 15.198,0.63 15.148,0.613 15.098,0.596 12.909,-0.117 10.546,1.084 9.833,3.274 9.118,5.468 10.296,7.818 12.511,8.537 13.572,8.883 14.703,8.795 15.698,8.289 16.691,7.783 17.429,6.922 17.775,5.86 18.473,3.717 17.363,1.428 15.249,0.649"
                 id="path4175" />
            </g>
            <g
               id="g4177">
              <path
                 style="fill:#294d9a"
                 inkscape:connector-curvature="0"
                 d="M 11.499,1.758 C 11.356,2.195 10.889,2.433 10.453,2.291 10.017,2.149 9.779,1.681 9.921,1.246 c 0.142,-0.436 0.61,-0.674 1.046,-0.532 0.435,0.14 0.674,0.608 0.532,1.044"
                 id="path4179" />
            </g>
            <g
               id="g4181">
              <path
                 style="fill:#294d9a"
                 inkscape:connector-curvature="0"
                 d="M 14.14,4.13 C 14.252,3.971 14.308,3.818 14.308,3.671 14.308,3.523 14.259,3.4 14.162,3.3 14.064,3.2 13.94,3.151 13.788,3.151 c -0.279,0 -0.544,0.199 -0.794,0.596 L 12.201,3.277 C 12.409,2.956 12.636,2.713 12.884,2.548 13.131,2.382 13.445,2.3 13.829,2.3 c 0.383,0 0.72,0.122 1.009,0.365 0.289,0.244 0.436,0.574 0.436,0.993 0,0.229 -0.06,0.447 -0.176,0.657 -0.116,0.21 -0.331,0.477 -0.644,0.804 l -0.8,0.83 1.752,0 0,0.889 -3.129,0 0,-0.738 1.301,-1.333 C 13.841,4.501 14.028,4.289 14.14,4.13 Z"
                 id="path4183" />
            </g>
            <g
               id="g4185">
              <path
                 style="fill:#294d9a"
                 inkscape:connector-curvature="0"
                 d="M 15.723,7.667 C 15.686,7.63 15.696,7.587 15.745,7.57 l 1.662,-0.56 c 0.05,-0.018 0.075,0.01 0.06,0.059 L 16.9,8.731 c -0.018,0.05 -0.061,0.06 -0.098,0.022 L 15.723,7.667 Z"
                 id="path4187" />
            </g>
          </g>
        </g>
      </g>
    </g>
  </g>
</svg>
