<?xml version="1.0" encoding="utf-8"?>
<!-- Generator: Adobe Illustrator 23.0.1, SVG Export Plug-In . SVG Version: 6.00 Build 0)  -->
<svg version="1.1" id="Layer_1" xmlns="http://www.w3.org/2000/svg" xmlns:xlink="http://www.w3.org/1999/xlink" x="0px" y="0px"
	 viewBox="0 0 30 30" style="enable-background:new 0 0 30 30;" xml:space="preserve">
<style type="text/css">
	.st0{fill:#CCCCCC;}
	.st1{fill:#282827;}
	.st2{fill:#159E49;}
</style>
<g>
	<g>
		<path class="st0" d="M25.5,0.5c2.2,0,4,1.7,4,4v21.1c0,2.2-1.7,4-4,4H4.5c-2.2,0-4-1.7-4-4V4.5c0-2.2,1.7-4,4-4H25.5 M25.5,0H4.5
			C2,0,0,2,0,4.5v21.1C0,28,2,30,4.5,30h21.1c2.5,0,4.5-2,4.5-4.5V4.5C30,2,28,0,25.5,0L25.5,0z"/>
	</g>
	<path class="st1" d="M20,13.7c-0.4-0.6-1-1-1.6-1.1c0.5-0.2,1-0.6,1.3-1c0.3-0.5,0.5-1.1,0.5-1.7c0-1-0.4-1.8-1.1-2.4
		c-0.4-0.3-0.8-0.5-1.3-0.7c-0.5-0.2-1.1-0.3-1.6-0.3H9.4v1.7l0,0c1,0,1.9,0.8,1.9,1.9s-0.8,1.9-1.9,1.9v1.5l0,0
		c1,0,1.9,0.8,1.9,1.9v0.3c0,1-0.8,1.9-1.9,1.9l0,0l0,0V19h7c0.6,0,1.1-0.1,1.7-0.3c0.4-0.1,0.9-0.4,1.3-0.7
		c0.4-0.3,0.6-0.7,0.8-1.1c0.2-0.4,0.3-0.9,0.3-1.4C20.6,14.9,20.4,14.2,20,13.7z M13.1,8.3h2.7c0.5,0,1,0.1,1.4,0.5
		c0.4,0.3,0.6,0.8,0.5,1.3c0,0.5-0.2,1-0.5,1.3c-0.4,0.3-0.9,0.5-1.4,0.4h-2.7V8.3z M17.6,16.7c-0.4,0.4-1,0.6-1.5,0.5h-2.9v-3.8h3
		c0.6,0,1.1,0.2,1.5,0.5c0.4,0.3,0.6,0.8,0.6,1.3C18.1,15.8,17.9,16.3,17.6,16.7L17.6,16.7z"/>
	<rect x="9.4" y="21.7" class="st2" width="11.2" height="1.8"/>
</g>
</svg>
