<svg xmlns="http://www.w3.org/2000/svg" viewBox="0 0 163.67 19.16"><defs><style>.cls-1{fill:#283475;}</style></defs><title>tipo-logo</title><g id="Capa_2" data-name="Capa 2"><g id="Capa_1-2" data-name="Capa 1"><path class="cls-1" d="M10,14.84a5.06,5.06,0,0,1-3.94,3.42,5.54,5.54,0,0,1-1.07.1A5.66,5.66,0,0,1,2.91,18,6.87,6.87,0,0,1,0,15.73L2.17,14A3.9,3.9,0,0,0,3.9,15.4a2.6,2.6,0,0,0,1.6.14,2.32,2.32,0,0,0,1.85-1.46,2.06,2.06,0,0,0-.81-2c-.78-.74-2-2-2.15-2.08L2.24,8A4.86,4.86,0,0,1,.9,5.88,3.74,3.74,0,0,1,.85,3.66a4,4,0,0,1,1.3-2,4.49,4.49,0,0,1,2.1-1A4.64,4.64,0,0,1,6.85.9,5.86,5.86,0,0,1,9.24,2.67L7.09,4.39a2.36,2.36,0,0,0-2.32-1,1.6,1.6,0,0,0-1.27,1c-.1.33-.07.87.66,1.58L7.09,8.81c.42.43.94.92,1.32,1.28A5.18,5.18,0,0,1,10,12.38,4.21,4.21,0,0,1,10,14.84Z"/><path class="cls-1" d="M21.24,14.6H18.31a4.88,4.88,0,0,0-4.53,3.07l-.27.69h-3L18.12,0l7.61,18.34h-3Zm-1-2.46L18.12,6.8,16,12.14Z"/><path class="cls-1" d="M36.31,3.28H31.49V18.36H28.72V3.28H23.91V.83h12.4Z"/><path class="cls-1" d="M41.43,17.67a8.73,8.73,0,0,1-2.78-1.89A8.36,8.36,0,0,1,36.76,13a8.72,8.72,0,0,1-.69-3.4,8.89,8.89,0,0,1,.69-3.42,9,9,0,0,1,1.89-2.79,8.51,8.51,0,0,1,2.78-1.87A8.76,8.76,0,0,1,44.84.83a8.92,8.92,0,0,1,3.42.68,9.12,9.12,0,0,1,2.79,1.87,9.27,9.27,0,0,1,1.86,2.79,8.89,8.89,0,0,1,.69,3.42,8.72,8.72,0,0,1-.69,3.4,8.58,8.58,0,0,1-1.86,2.79,9.36,9.36,0,0,1-2.79,1.89,8.93,8.93,0,0,1-3.42.69A8.77,8.77,0,0,1,41.43,17.67ZM40.58,5.34a6,6,0,0,0-1.46,6.2,5.25,5.25,0,0,0,.33.77,6.08,6.08,0,0,0,7.34,3,4.22,4.22,0,0,0,.76-.32,6.08,6.08,0,0,0,3-7.37,5.13,5.13,0,0,0-.33-.76,6,6,0,0,0-9.63-1.51Z"/><path class="cls-1" d="M64.32,14.84a5.06,5.06,0,0,1-3.94,3.42,5.54,5.54,0,0,1-1.07.1A5.66,5.66,0,0,1,57.24,18a6.87,6.87,0,0,1-2.91-2.25L56.5,14a3.9,3.9,0,0,0,1.73,1.37,2.6,2.6,0,0,0,1.6.14,2.32,2.32,0,0,0,1.85-1.46,2.06,2.06,0,0,0-.81-2c-.78-.74-2-2-2.15-2.08L56.57,8a4.86,4.86,0,0,1-1.34-2.1,3.74,3.74,0,0,1,0-2.22,4,4,0,0,1,1.3-2,4.49,4.49,0,0,1,2.1-1,4.64,4.64,0,0,1,2.6.19,5.86,5.86,0,0,1,2.39,1.77L61.42,4.39a2.36,2.36,0,0,0-2.32-1,1.6,1.6,0,0,0-1.27,1c-.1.33-.07.87.66,1.58l2.93,2.81c.42.43.94.92,1.32,1.28a5.18,5.18,0,0,1,1.54,2.29A4.13,4.13,0,0,1,64.32,14.84Z"/><path class="cls-1" d="M78.92,18.36H76.18V10.8h-7v7.56H66.45V.83h2.74V8.32h7V.83h2.74Z"/><path class="cls-1" d="M81.87,18.36V.83h2.74V18.36Z"/><path class="cls-1" d="M98.81,3.28H94V18.36H91.23V3.28H86.41V.83h12.4Z"/><path class="cls-1" d="M107.72,14.6h-2.94a4.88,4.88,0,0,0-4.52,3.07l-.27.69H97L104.6,0l7.6,18.34h-3Zm-1-2.46L104.6,6.8l-2.13,5.34Z"/><path class="cls-1" d="M116.67,7.09V18.36h-2.74V0l11,12.07V.83h2.76V19.16Z"/><path class="cls-1" d="M151.51,17.67a8.77,8.77,0,0,1-2.79-1.89,8.65,8.65,0,0,1-2.57-6.19,8.88,8.88,0,0,1,.68-3.42,9.36,9.36,0,0,1,1.89-2.79,8.56,8.56,0,0,1,2.79-1.87,8.71,8.71,0,0,1,3.4-.68,8.69,8.69,0,0,1,6.21,2.55A9.12,9.12,0,0,1,163,6.17a8.88,8.88,0,0,1,.68,3.42A8.71,8.71,0,0,1,163,13a8.45,8.45,0,0,1-1.87,2.79,9.2,9.2,0,0,1-2.78,1.89,9,9,0,0,1-3.43.69A8.72,8.72,0,0,1,151.51,17.67Zm-.85-12.33a6,6,0,0,0-1.46,6.2,5.25,5.25,0,0,0,.33.77,6.07,6.07,0,0,0,7.33,3,4.31,4.31,0,0,0,.77-.32,6.08,6.08,0,0,0,3-7.37,5.13,5.13,0,0,0-.33-.76,6.09,6.09,0,0,0-5.37-3.28A6,6,0,0,0,150.66,5.34Z"/><path class="cls-1" d="M141.44,9.26h-3.3V11.8h3.3V15a6,6,0,0,1-2.7.65,6.14,6.14,0,0,1-5.42-3.33,5.37,5.37,0,0,1-.33-.78,6.06,6.06,0,0,1,9.61-6.61V1.66l-.42-.19a8.81,8.81,0,0,0-3.44-.69,8.64,8.64,0,0,0-3.42.69,8.8,8.8,0,0,0-2.81,1.87,9.55,9.55,0,0,0-1.9,2.81,9,9,0,0,0-.68,3.44,8.81,8.81,0,0,0,.68,3.42,8.94,8.94,0,0,0,4.71,4.71,8.81,8.81,0,0,0,3.42.68,9.11,9.11,0,0,0,2.7-.41c.25-.08.5-.17.74-.27a9.11,9.11,0,0,0,2-1.24V9.26Z"/></g></g></svg>